<?xml version="1.0" standalone="no"?>
<!DOCTYPE svg PUBLIC "-//W3C//DTD SVG 20010904//EN"
 "http://www.w3.org/TR/2001/REC-SVG-20010904/DTD/svg10.dtd">
<svg version="1.0" xmlns="http://www.w3.org/2000/svg"
 width="661.000000pt" height="661.000000pt" viewBox="0 0 661.000000 661.000000"
 preserveAspectRatio="xMidYMid meet">
<metadata>
Created by potrace 1.14, written by Peter Selinger 2001-2017
</metadata>
<g transform="translate(0.000000,661.000000) scale(0.100000,-0.100000)"
fill="#000000" stroke="none">
<path d="M3098 6605 c-2 -2 -41 -6 -88 -9 -47 -4 -98 -9 -115 -11 -16 -3 -46
-7 -65 -10 -145 -18 -402 -79 -565 -135 -66 -23 -124 -42 -130 -44 -11 -3 -28
-10 -125 -51 -73 -31 -257 -121 -328 -161 -99 -56 -266 -165 -270 -176 -2 -4
-8 -8 -14 -8 -8 0 -117 -79 -138 -100 -3 -3 -27 -23 -55 -45 -27 -21 -63 -51
-79 -65 -56 -49 -282 -276 -326 -329 -25 -30 -49 -59 -55 -65 -5 -6 -27 -34
-47 -61 -21 -28 -43 -56 -49 -64 -7 -8 -31 -41 -53 -75 -22 -33 -44 -62 -48
-64 -4 -2 -8 -10 -8 -18 0 -8 -4 -14 -9 -14 -5 0 -11 -8 -15 -17 -5 -18 -26
-53 -36 -63 -4 -4 -24 -39 -54 -95 -6 -11 -17 -28 -25 -37 -8 -10 -10 -18 -5
-18 5 0 4 -4 -2 -8 -13 -9 -84 -152 -84 -170 0 -6 -4 -12 -10 -12 -5 0 -10 -7
-10 -15 0 -9 -7 -27 -16 -40 -9 -14 -14 -25 -10 -25 3 0 -3 -16 -14 -36 -11
-19 -22 -43 -24 -52 -3 -18 -8 -33 -36 -102 -15 -40 -32 -96 -32 -110 0 -3 -4
-11 -10 -17 -6 -7 -7 -13 -4 -13 4 0 2 -8 -3 -18 -6 -11 -12 -30 -15 -43 -3
-13 -13 -51 -22 -84 -8 -33 -17 -67 -18 -75 -1 -8 -6 -28 -9 -45 -20 -83 -18
-74 -31 -160 -3 -22 -8 -51 -11 -65 -34 -177 -40 -630 -11 -865 84 -672 344
-1258 796 -1789 45 -54 264 -270 319 -316 30 -25 65 -54 77 -66 13 -11 35 -29
50 -40 14 -10 34 -26 44 -34 10 -8 28 -22 41 -30 12 -8 42 -30 66 -47 24 -18
47 -33 52 -33 4 0 16 -9 26 -20 10 -11 22 -20 27 -20 5 0 29 -13 53 -30 24
-16 48 -30 54 -30 6 0 11 -5 11 -11 0 -5 4 -7 10 -4 5 3 10 2 10 -2 0 -5 15
-16 33 -25 17 -8 80 -40 138 -69 58 -30 119 -59 135 -66 47 -20 78 -31 88 -31
5 0 12 -4 15 -9 6 -8 61 -31 91 -38 8 -2 39 -12 67 -24 29 -11 63 -23 75 -26
13 -2 55 -14 93 -26 90 -27 123 -35 223 -54 15 -3 35 -8 44 -11 19 -6 39 -9
103 -19 22 -3 54 -8 70 -10 17 -3 43 -7 58 -9 128 -21 519 -28 697 -13 79 6
208 24 305 41 11 2 38 7 60 11 141 24 388 98 575 172 251 99 591 290 761 427
14 12 40 32 59 46 18 14 41 32 50 40 10 8 39 33 66 55 61 50 286 275 339 340
22 26 45 53 50 59 6 6 26 31 45 56 19 25 43 54 52 64 10 11 20 28 24 38 3 10
9 18 13 18 3 0 15 15 26 32 10 18 34 52 52 76 18 24 33 48 33 53 0 5 9 19 20
31 10 12 17 25 14 30 -3 4 0 8 5 8 6 0 11 7 11 15 0 8 5 15 11 15 5 0 7 5 4
10 -3 5 -2 10 4 10 5 0 13 10 17 23 3 12 13 30 22 40 8 9 11 17 6 17 -5 0 -4
4 2 8 8 5 92 168 99 192 1 3 9 21 17 40 26 61 31 75 30 83 -1 4 3 7 10 7 6 0
8 3 5 7 -4 3 -3 11 2 17 7 9 88 243 98 281 1 6 12 46 24 90 22 83 26 100 34
150 3 17 8 39 12 50 3 11 7 31 8 45 2 14 6 40 9 58 3 17 9 47 12 65 6 33 7 42
21 187 9 107 9 479 -1 585 -7 83 -10 106 -28 215 -5 36 -12 79 -15 95 -9 63
-74 314 -104 405 -48 147 -116 313 -181 445 -57 116 -164 305 -178 315 -3 3
-9 12 -12 20 -6 17 -151 219 -189 265 -147 176 -318 353 -423 440 -27 22 -56
47 -66 55 -9 8 -32 26 -50 40 -18 14 -39 31 -46 38 -7 6 -17 12 -23 12 -6 0
-11 3 -11 8 0 4 -37 32 -82 62 -46 30 -89 60 -96 67 -7 7 -20 13 -28 13 -8 0
-14 5 -14 10 0 6 -7 10 -15 10 -8 0 -15 5 -15 11 0 5 -4 7 -10 4 -5 -3 -10 -1
-10 4 0 6 -7 11 -15 11 -8 0 -15 3 -15 8 0 4 -20 16 -45 27 -25 11 -45 24 -45
28 0 5 -4 6 -9 3 -5 -4 -11 -3 -13 2 -5 12 -145 81 -152 75 -3 -4 -6 -1 -6 5
0 7 -3 11 -7 10 -5 -1 -24 6 -43 14 -71 33 -115 52 -120 53 -3 1 -17 7 -33 13
-34 14 -177 63 -197 67 -8 2 -16 4 -17 5 -2 2 -6 3 -10 5 -5 1 -15 5 -23 8
-15 6 -128 36 -163 43 -10 2 -26 5 -35 8 -9 3 -30 8 -47 11 -16 2 -41 7 -55
10 -14 4 -34 8 -45 9 -11 2 -38 6 -60 10 -23 3 -51 8 -64 11 -12 2 -49 7 -82
10 -33 4 -70 9 -82 12 -24 5 -514 13 -519 8z"/>
</g>
</svg>
